<svg id="visual" viewBox="0 0 1920 1080" width="1920" height="1080" xmlns="http://www.w3.org/2000/svg" xmlns:xlink="http://www.w3.org/1999/xlink" version="1.1"><rect x="0" y="0" width="1920" height="1080" fill="#001220"></rect><defs><linearGradient id="grad1_0" x1="43.8%" y1="0%" x2="100%" y2="100%"><stop offset="14.444444444444446%" stop-color="#001220" stop-opacity="1"></stop><stop offset="85.55555555555554%" stop-color="#001220" stop-opacity="1"></stop></linearGradient></defs><defs><linearGradient id="grad2_0" x1="0%" y1="0%" x2="56.3%" y2="100%"><stop offset="14.444444444444446%" stop-color="#001220" stop-opacity="1"></stop><stop offset="85.55555555555554%" stop-color="#001220" stop-opacity="1"></stop></linearGradient></defs><g transform="translate(1920, 0)"><path d="M0 432C-43.5 403.8 -87 375.5 -110.3 339.5C-133.6 303.5 -136.7 259.8 -183.4 252.4C-230.1 245.1 -320.4 274.1 -349.5 253.9C-378.6 233.7 -346.4 164.2 -350 113.7C-353.5 63.2 -392.8 31.6 -432 0L0 0Z" fill="#FCAF3C"></path></g><g transform="translate(0, 1080)"><path d="M0 -432C36.2 -394.1 72.3 -356.1 106.9 -329.1C141.5 -302 174.5 -285.9 186.9 -257.3C199.4 -228.7 191.3 -187.6 233.8 -169.9C276.3 -152.2 369.4 -157.9 410.9 -133.5C452.3 -109.1 442.2 -54.5 432 0L0 0Z" fill="#FCAF3C"></path></g></svg>